<svg xmlns="http://www.w3.org/2000/svg" xmlns:xlink="http://www.w3.org/1999/xlink" preserveAspectRatio="xMidYMid" width="3000" height="1423" viewBox="0 0 3000 1423">
  <defs>
    <style>
     .cls-1 path {
       fill: #dbab83;
     }
    </style>

    <filter id="color-overlay-1" filterUnits="userSpaceOnUse">
      <feFlood/>
      <feComposite operator="in" in2="SourceGraphic"/>
      <feBlend in2="SourceGraphic" result="solidFill"/>
    </filter>
  </defs>
  <g class="cls-1">
    <path d="M2756.436,491.286 C2741.545,524.171 2713.003,533.478 2688.804,524.171 C2664.606,514.864 2649.094,479.497 2677.015,463.986 C2704.937,448.474 2734.099,462.124 2729.756,475.154 C2725.412,488.184 2711.141,500.593 2699.352,487.563 C2687.563,474.533 2686.943,480.118 2688.184,486.943 C2689.425,493.768 2700.951,510.686 2721.069,499.352 C2731.894,493.254 2733.527,488.530 2735.960,481.359 C2738.118,475.001 2742.000,467.041 2737.201,449.715 C2726.033,409.385 2667.088,446.613 2652.817,457.160 C2638.546,467.708 2572.155,505.557 2521.276,497.491 C2470.397,489.425 2467.294,463.365 2479.704,445.992 C2492.114,428.619 2516.312,424.896 2530.583,438.547 C2544.854,452.197 2534.926,467.088 2526.240,472.672 C2521.339,475.822 2519.007,476.997 2517.904,477.424 C2517.278,477.562 2516.933,477.636 2516.933,477.636 C2516.933,477.636 2517.052,477.753 2517.904,477.424 C2523.660,476.154 2554.053,469.277 2575.878,460.883 C2600.076,451.576 2613.106,445.372 2613.106,445.372 C2613.106,445.372 2677.015,403.180 2716.105,409.385 C2755.195,415.589 2771.328,458.401 2756.436,491.286 ZM2607.522,496.870 C2671.431,504.936 2711.141,519.207 2716.726,617.241 C2720.216,678.507 2709.302,784.255 2705.557,836.265 C2704.467,851.402 2701.834,887.143 2701.834,887.143 C2701.834,887.143 2705.410,916.685 2714.244,895.830 C2723.078,874.975 2742.165,851.776 2752.713,887.143 C2763.261,922.510 2747.129,975.249 2719.828,978.352 C2692.527,981.454 2678.877,964.701 2671.431,947.328 C2669.578,943.005 2668.495,940.221 2667.911,938.474 C2668.576,937.795 2668.949,937.401 2668.949,937.401 C2668.949,937.401 2666.149,933.201 2667.911,938.474 C2662.296,944.218 2634.548,971.694 2611.245,978.352 C2585.185,985.797 2550.438,987.038 2535.547,950.431 C2520.655,913.823 2500.180,850.536 2523.137,808.344 C2546.095,766.152 2580.842,728.924 2619.932,740.093 C2645.344,747.354 2651.612,751.467 2652.888,753.456 C2652.842,754.441 2652.817,754.984 2652.817,754.984 C2652.817,754.984 2653.574,754.527 2652.888,753.456 C2653.490,740.425 2657.781,647.131 2657.781,632.132 C2657.781,616.000 2653.437,553.953 2622.413,545.267 C2591.390,536.580 2559.125,543.405 2538.029,569.465 C2516.933,595.524 2515.692,619.102 2537.408,642.680 C2559.125,666.257 2580.842,699.142 2564.709,723.340 C2548.577,747.538 2502.662,709.690 2500.800,665.016 C2500.694,662.467 2492.679,626.021 2497.077,599.247 C2505.732,546.568 2538.618,488.174 2607.522,496.870 ZM2652.817,823.235 C2652.817,823.235 2649.408,801.833 2636.064,788.489 C2620.552,772.977 2589.298,775.441 2575.257,785.387 C2560.366,795.935 2556.311,802.372 2546.095,828.819 C2535.400,856.507 2548.666,893.656 2570.293,920.648 C2592.106,947.872 2618.691,944.226 2635.443,933.678 C2652.196,923.130 2659.642,903.275 2660.262,889.005 C2660.883,874.734 2652.817,823.235 2652.817,823.235 Z" class="cls-2"/>
    <path d="M2219.725,726.443 L2214.140,860.463 C2214.140,860.463 2219.467,906.773 2204.833,929.335 C2190.199,951.896 2171.074,964.479 2189.942,964.701 C2208.810,964.923 2247.415,953.309 2283.013,955.394 C2318.611,957.479 2340.717,962.840 2340.717,962.840 C2340.717,962.840 2342.342,953.302 2316.519,938.642 C2290.696,923.981 2266.019,919.785 2266.260,892.107 C2266.502,864.429 2264.164,744.772 2281.152,705.967 C2298.140,667.162 2360.981,580.943 2385.392,560.778 C2409.802,540.614 2422.413,521.384 2428.205,545.887 C2433.996,570.390 2437.296,631.229 2415.175,655.709 C2393.053,680.189 2381.669,676.185 2381.669,676.185 C2381.669,676.185 2378.566,674.323 2387.874,664.396 C2397.181,654.469 2414.554,640.198 2399.042,626.548 C2383.530,612.897 2353.747,631.511 2346.922,656.330 C2340.097,681.149 2342.579,694.178 2351.886,713.413 C2361.193,732.647 2374.223,751.261 2411.452,720.238 C2448.680,689.215 2474.740,651.987 2469.776,607.934 C2464.813,563.881 2457.367,517.346 2438.132,511.141 C2418.897,504.936 2397.801,501.213 2366.157,533.478 C2334.513,565.742 2304.730,593.042 2299.146,599.247 C2293.561,605.452 2279.911,625.927 2270.604,601.729 C2261.297,577.531 2248.267,504.316 2200.490,531.616 C2152.713,558.917 2199.869,604.831 2206.074,609.175 C2212.279,613.518 2216.622,616.620 2217.863,637.096 C2219.104,657.571 2219.725,726.443 2219.725,726.443 Z" class="cls-2"/>
    <path d="M2081.979,977.731 C2063.089,987.747 2032.011,997.491 1962.848,981.454 C1893.685,965.417 1891.502,860.707 1891.493,848.674 C1891.484,836.641 1894.294,758.352 1891.493,696.660 C1888.692,634.969 1888.711,610.402 1908.246,563.881 C1927.781,517.359 1988.908,502.454 1988.908,502.454 C1988.908,502.454 1978.041,505.255 2024.275,496.250 C2070.509,487.245 2098.078,518.282 2117.346,539.062 C2136.615,559.842 2139.021,648.552 2143.406,802.760 C2147.792,956.967 2100.869,967.715 2081.979,977.731 ZM2102.455,731.406 C2102.730,717.409 2102.455,696.660 2102.455,696.660 C2102.455,696.660 2104.316,690.145 2095.630,695.419 C2086.943,700.693 2040.717,719.617 2014.968,702.865 C1989.218,686.112 1954.782,664.396 1954.782,621.584 C1954.782,578.772 2004.109,553.022 2037.925,573.808 C2071.741,594.594 2049.404,629.340 2034.203,633.993 C2019.001,638.647 2010.004,638.647 2006.902,637.716 C2003.799,636.785 2003.799,637.096 2003.799,637.096 C2003.799,637.096 2004.420,656.950 2023.654,666.878 C2042.889,676.805 2060.262,686.422 2076.395,652.607 C2092.527,618.792 2110.831,588.079 2085.082,554.574 C2059.332,521.068 2004.730,536.580 1992.631,542.164 C1980.531,547.748 1933.065,566.673 1933.685,624.686 C1934.306,682.700 1934.306,689.215 1934.306,689.215 C1934.306,689.215 1936.787,751.315 1933.685,776.700 C1930.584,802.085 1925.929,843.476 1930.583,873.493 C1935.237,903.510 1961.325,966.341 2016.209,966.563 C2071.093,966.784 2094.425,931.873 2101.834,873.493 C2109.244,815.112 2102.179,745.403 2102.455,731.406 Z" class="cls-2"/>
    <path d="M1825.723,741.334 C1760.874,823.880 1652.610,835.644 1652.610,835.644 C1652.610,835.644 1652.358,836.514 1651.369,880.318 C1650.380,924.122 1643.983,1026.337 1639.580,1090.656 C1635.176,1154.975 1670.038,1160.329 1681.152,1165.112 C1692.266,1169.894 1696.093,1175.217 1692.320,1183.726 C1688.548,1192.234 1670.969,1180.800 1658.815,1178.141 C1646.661,1175.483 1608.624,1184.522 1570.707,1191.792 C1532.791,1199.061 1566.750,1174.287 1584.358,1156.425 C1601.965,1138.564 1596.527,1095.194 1596.767,1050.326 C1597.007,1005.457 1593.044,737.611 1593.044,737.611 C1593.044,737.611 1590.944,643.900 1589.942,614.759 C1588.940,585.618 1578.847,592.722 1569.466,593.663 C1560.085,594.604 1547.209,604.819 1539.063,601.729 C1530.916,598.639 1534.182,572.251 1550.852,550.851 C1567.522,529.451 1593.735,516.421 1656.953,496.870 C1720.171,477.320 1767.743,498.741 1813.313,529.755 C1858.883,560.769 1890.572,658.788 1825.723,741.334 ZM1800.283,584.356 C1774.256,549.919 1741.284,523.858 1708.453,528.514 C1675.621,533.170 1639.580,539.062 1639.580,539.062 L1645.785,631.511 C1645.785,631.511 1643.864,742.004 1645.785,761.809 C1647.706,781.614 1648.887,809.585 1648.887,809.585 C1648.887,809.585 1726.419,796.592 1764.296,757.466 C1802.172,718.340 1804.913,713.122 1813.313,674.323 C1821.713,635.525 1826.310,618.793 1800.283,584.356 Z" class="cls-2"/>
    <path d="M1318.794,987.038 C1180.819,987.340 1201.524,718.997 1201.524,718.997 C1201.524,718.997 1209.251,605.230 1227.584,570.085 C1245.917,534.940 1302.303,495.431 1389.528,501.213 C1476.754,506.996 1475.380,603.369 1482.600,759.948 C1489.819,916.526 1456.769,986.736 1318.794,987.038 ZM1424.895,713.413 C1424.895,713.413 1417.688,612.674 1393.251,562.639 C1368.815,512.605 1322.774,541.956 1302.041,549.610 C1281.308,557.264 1268.804,640.589 1268.536,776.700 C1268.267,912.811 1292.998,953.238 1365.330,951.671 C1437.662,950.105 1424.895,713.413 1424.895,713.413 Z" class="cls-2"/>
    <path d="M911.762,605.452 C911.762,605.452 912.040,784.418 911.762,815.790 C911.484,847.161 911.762,920.028 911.762,920.028 C911.762,920.028 910.482,943.901 895.630,952.292 C880.777,960.682 857.133,981.130 896.871,972.767 C936.608,964.404 962.623,959.723 971.948,959.737 C981.273,959.752 994.285,956.015 994.285,956.015 C994.285,956.015 953.000,954.113 952.713,894.589 C952.427,835.064 953.002,803.331 958.298,797.796 C963.593,792.261 1002.662,752.758 1037.098,759.948 C1071.534,767.138 1061.294,819.173 1057.574,853.638 C1053.854,888.103 1035.554,955.075 1069.363,969.044 C1103.171,983.014 1176.724,979.244 1167.398,911.341 C1158.072,843.439 1147.863,833.124 1132.031,838.747 C1116.199,844.369 1092.951,873.785 1104.110,906.998 C1115.268,940.211 1143.199,912.582 1143.199,912.582 C1143.199,912.582 1140.413,943.900 1119.001,948.569 C1097.588,953.238 1077.436,922.159 1089.839,879.077 C1102.241,835.995 1128.626,794.629 1115.899,758.086 C1103.171,721.543 1076.183,719.244 1059.435,722.720 C1042.688,726.195 1043.923,726.442 1043.923,726.442 C1043.923,726.442 1119.326,653.146 1128.929,646.402 C1138.531,639.659 1181.372,604.743 1156.229,605.452 C1131.087,606.161 1044.544,609.795 1044.544,609.795 C1044.544,609.795 1032.135,619.021 1051.369,630.270 C1070.603,641.520 1070.604,641.439 1070.604,641.439 C1070.604,641.439 1012.877,712.117 986.840,738.231 C960.802,764.346 958.918,768.014 958.918,768.014 C958.918,768.014 949.588,522.196 953.334,503.695 C957.080,485.195 971.931,444.004 979.394,432.962 C986.856,421.921 1003.247,401.193 950.852,414.348 C898.457,427.504 905.827,419.494 890.045,417.451 C874.263,415.407 849.993,423.225 882.600,439.787 C915.206,456.350 911.762,605.452 911.762,605.452 Z" class="cls-2"/>
    <path d="M818.691,761.809 C799.098,805.487 685.909,799.037 685.909,799.037 C685.909,799.037 685.678,804.978 687.150,830.060 C688.622,855.142 693.122,921.601 723.137,940.503 C753.153,959.405 775.008,936.489 780.221,926.853 C785.435,917.217 777.489,910.435 770.294,899.552 C763.098,888.670 746.472,860.808 775.257,839.988 C804.043,819.167 817.191,859.568 821.173,911.962 C825.154,964.356 783.692,977.431 730.583,985.177 C677.474,992.922 660.864,945.174 641.235,885.902 C621.606,826.630 623.643,756.592 621.379,702.244 C619.116,647.897 636.050,599.027 682.186,560.778 C728.322,522.530 796.099,550.641 813.727,579.392 C831.354,608.144 838.283,718.131 818.691,761.809 ZM798.215,674.944 C793.308,599.647 763.402,589.847 754.161,586.838 C744.921,583.828 731.824,583.735 731.824,583.735 C731.824,583.735 677.453,583.674 680.945,660.053 C684.437,736.431 682.807,756.845 682.807,756.845 C682.807,756.845 710.353,764.236 733.686,764.291 C757.018,764.346 803.122,750.241 798.215,674.944 Z" class="cls-2"/>
    <path d="M754.161,360.988 C754.161,360.988 589.295,374.804 513.417,357.265 C437.539,339.727 346.030,300.361 299.973,349.820 C253.916,399.279 199.618,462.975 276.395,555.815 C353.171,648.653 461.487,603.156 473.706,519.827 C485.926,436.499 430.430,428.190 378.153,445.372 C325.876,462.553 312.544,477.842 329.756,504.936 C346.968,532.030 373.361,544.847 386.840,524.791 C400.318,504.736 399.249,508.659 397.388,497.491 C395.526,486.322 393.665,480.738 393.665,480.738 C393.665,480.738 419.725,476.395 419.725,499.352 C419.725,522.309 413.520,546.507 376.912,548.369 C340.304,550.230 315.485,548.369 295.630,515.484 C275.774,482.600 262.744,442.890 286.943,423.655 C311.142,404.421 330.376,385.186 394.285,393.253 C458.194,401.318 482.393,404.421 482.393,404.421 C482.393,404.421 490.459,396.975 492.941,447.233 C495.423,497.491 505.350,683.630 504.730,708.449 C504.109,733.268 499.766,871.631 497.284,905.137 C494.802,938.642 491.079,961.599 454.471,980.213 C417.863,998.827 399.870,1008.134 417.243,1007.513 C434.616,1006.893 489.218,994.484 523.965,1016.200 C558.711,1037.916 604.627,1075.144 622.000,1079.487 C639.373,1083.831 669.777,1085.692 684.668,1073.903 C699.559,1062.114 711.969,1055.910 695.837,1048.464 C679.704,1041.018 654.885,1041.018 622.000,1019.302 C589.115,997.586 569.259,969.665 561.814,873.493 C554.368,777.321 551.886,604.831 553.748,566.983 C555.609,529.134 563.055,467.088 565.537,445.372 C568.018,423.655 554.368,408.144 610.831,406.903 C667.295,405.662 746.716,391.391 788.287,376.500 C829.859,361.609 867.708,350.440 873.293,324.381 C878.877,298.321 878.256,254.889 842.889,243.720 C807.522,232.552 804.420,227.588 799.456,232.552 C794.492,237.516 791.390,243.720 803.179,248.684 C814.968,253.648 838.546,268.539 839.787,292.737 C841.028,316.935 832.962,334.929 791.390,349.199 C749.818,363.470 754.161,360.988 754.161,360.988 Z" class="cls-2"/>
  </g>
</svg>
